<?xml version="1.0" encoding="UTF-8"?>
<svg width="70px" height="40px" viewBox="0 0 70 40" version="1.1" xmlns="http://www.w3.org/2000/svg" xmlns:xlink="http://www.w3.org/1999/xlink">
    <!-- Generator: Sketch 43.1 (39012) - http://www.bohemiancoding.com/sketch -->
    <title>espnu-network-logo</title>
    <desc>Created with Sketch.</desc>
    <defs></defs>
    <g id="Page-1" stroke="none" stroke-width="1" fill="none" fill-rule="evenodd">
        <g id="espnu-network-logo" fill-rule="nonzero">
            <g id="espnu" transform="translate(14.000000, 1.000000)">
                <path d="M36.042702,0 L22.0438778,0 L22.0438778,9.00433467 L23.5113408,9.00433467 C23.5113408,9.00433467 23.4558282,29.0179788 23.4558282,29.5065861 L23.2144692,29.7208031 L18.3390166,29.7208031 L18.1604109,29.5547248 L18.1604109,9.00433467 L19.5675341,9.00433467 L19.5675341,0 L4.94117647,0 L4.94117647,9.03321786 L7.58405793,9.03321786 L7.58405793,32.7078064 L13.9004239,38.7058824 L27.7713278,38.7058824 L34.0876938,32.7078064 L34.0876938,9.03321786 L37.0588235,9.03321786 L37.0588235,0 L36.042702,0 Z" id="Shape" fill="#231F20"></path>
                <polygon id="Shape" fill="#EF4136" points="25.4013751 2.47058824 25.4013751 5.77768431 26.9341482 5.77768431 26.9757066 30.3141261 24.875783 32.1599471 17.436822 32.1599471 15.4493506 30.3213363 15.5202445 5.77768431 17.0359053 5.77768431 17.0359053 2.47058824 8.23529412 2.47058824 8.23529412 5.78008772 10.9048128 5.78008772 10.9048128 31.1024455 15.5055768 35.4117647 26.9757066 35.4117647 31.574026 31.1024455 31.574026 5.78008772 34.5882353 5.78008772 34.5882353 2.47058824"></polygon>
                <polygon id="Shape" fill="#231F20" points="42 23.8823529 39.2225375 18.1164684 41.9951358 12.3529412 0.00729631131 12.3529412 2.77989461 18.1164684 0 23.8823529"></polygon>
                <polygon id="Shape" fill="#FFFFFF" points="6.84894621 14 13.1764706 14.001982 12.9415959 15.6470588 6.58823529 15.6470588"></polygon>
                <path d="M15.1253618,14.0000514 L26.6752322,14.0000514 C27.3893292,13.9943296 27.9779195,14.4667769 28,15.0634106 C27.9997605,15.2593869 27.9765337,15.4548714 27.930653,15.6470588 L13.1764706,15.6470588 L13.274513,15.1113817 C13.360599,14.6376672 14.1497205,13.9980526 15.1253618,14.0000514 Z" id="Shape" fill="#FFFFFF"></path>
                <path d="M29.0774085,14 L34.6071372,14 C35.4775799,14 36.3528583,14.3154736 36.2222919,15.3873002 C36.1836056,15.7047333 36.1956951,15.6420304 36.1956951,15.6420304 L28.8235294,15.6420304 L29.0774085,14 Z" id="Shape" fill="#FFFFFF"></path>
                <path d="M13.1764706,21.4020974 L13.4118072,19.6233962 L18.0950057,19.6233962 L18.1797269,18.8353929 L14.760286,18.8353929 C14.0942834,18.8126183 13.4376942,18.3798997 13.6236101,17.3026581 C14.8685408,17.2912708 18.6480467,17.2912708 19.0692992,17.3026581 C19.9235711,17.3026581 20.6437011,17.7308218 20.584867,18.8035084 C20.5589799,19.2817763 20.4295448,20.2155374 20.2012683,20.5753771 C19.8463197,21.1502122 19.178454,21.4729307 18.4903712,21.4020974 C18.3491692,21.4089297 13.1764706,21.4020974 13.1764706,21.4020974 Z" id="Shape" fill="#FFFFFF"></path>
                <path d="M28,17.303268 C28,17.303268 27.9316562,17.6601307 27.8821659,17.8911765 C27.8018504,18.4535374 27.2874167,18.8600083 26.7038249,18.8222222 L23.3809034,18.8222222 L22.9826241,21.4117647 L20.5882353,21.4117647 L21.160909,17.2941176 L28,17.2941176 L28,17.303268 Z" id="Shape" fill="#FFFFFF"></path>
                <polygon id="Shape" fill="#FFFFFF" points="28.6538135 17.2941176 31.2941176 17.2941176 30.6077388 21.4094656 28 21.4117647"></polygon>
                <polygon id="Shape" fill="#FFFFFF" points="33.5718541 17.2941176 36.2352941 17.2941176 35.6046165 21.4117647 32.9411765 21.4117647"></polygon>
                <polygon id="Shape" fill="#FFFFFF" points="6.34666293 17.2941176 13.1764706 17.2941176 12.9371376 18.8530061 8.70976127 18.857551 8.58883513 19.6210882 12.8136922 19.6233606 12.564282 21.4117647 5.76470588 21.4117647"></polygon>
            </g>
        </g>
    </g>
</svg>